<?xml version="1.0" encoding="UTF-8" standalone="no"?>
<!DOCTYPE svg PUBLIC "-//W3C//DTD SVG 1.1//EN"
 "http://www.w3.org/Graphics/SVG/1.1/DTD/svg11.dtd">
<!-- Generated by graphviz version 6.0.1 (20220911.1526)
 -->
<!-- Pages: 1 -->
<svg width="194pt" height="392pt"
 viewBox="0.00 0.00 194.15 392.00" xmlns="http://www.w3.org/2000/svg" xmlns:xlink="http://www.w3.org/1999/xlink">
<g id="graph0" class="graph" transform="scale(1 1) rotate(0) translate(4 388)">
<polygon fill="white" stroke="none" points="-4,4 -4,-388 190.15,-388 190.15,4 -4,4"/>
<!-- 3 -->
<g id="node1" class="node">
<title>3</title>
<ellipse fill="none" stroke="red" cx="144.15" cy="-279" rx="29.5" ry="18"/>
<text text-anchor="middle" x="144.15" y="-275.3" font-family="Times,serif" font-size="14.00">fin_3</text>
</g>
<!-- 18 -->
<g id="node7" class="node">
<title>18</title>
<ellipse fill="none" stroke="red" cx="113.15" cy="-192" rx="33.29" ry="18"/>
<text text-anchor="middle" x="113.15" y="-188.3" font-family="Times,serif" font-size="14.00">ini_18</text>
</g>
<!-- 3&#45;&gt;18 -->
<g id="edge8" class="edge">
<title>3&#45;&gt;18</title>
<path fill="none" stroke="red" d="M138.02,-261.21C133.65,-249.22 127.68,-232.85 122.69,-219.16"/>
<polygon fill="red" stroke="red" points="125.97,-217.95 119.26,-209.76 119.4,-220.35 125.97,-217.95"/>
<text text-anchor="middle" x="134.65" y="-231.8" font-family="Times,serif" font-size="14.00">1</text>
</g>
<!-- 5 -->
<g id="node2" class="node">
<title>5</title>
<ellipse fill="none" stroke="black" cx="33.15" cy="-192" rx="28.7" ry="18"/>
<text text-anchor="middle" x="33.15" y="-188.3" font-family="Times,serif" font-size="14.00">ini_5</text>
</g>
<!-- 11 -->
<g id="node4" class="node">
<title>11</title>
<ellipse fill="none" stroke="black" cx="33.15" cy="-105" rx="33.29" ry="18"/>
<text text-anchor="middle" x="33.15" y="-101.3" font-family="Times,serif" font-size="14.00">ini_11</text>
</g>
<!-- 5&#45;&gt;11 -->
<g id="edge1" class="edge">
<title>5&#45;&gt;11</title>
<path fill="none" stroke="black" d="M33.15,-173.8C33.15,-162.16 33.15,-146.55 33.15,-133.24"/>
<polygon fill="black" stroke="black" points="36.65,-133.18 33.15,-123.18 29.65,-133.18 36.65,-133.18"/>
<text text-anchor="middle" x="36.65" y="-144.8" font-family="Times,serif" font-size="14.00">1</text>
</g>
<!-- 9 -->
<g id="node3" class="node">
<title>9</title>
<ellipse fill="none" stroke="red" cx="113.15" cy="-105" rx="28.7" ry="18"/>
<text text-anchor="middle" x="113.15" y="-101.3" font-family="Times,serif" font-size="14.00">ini_9</text>
</g>
<!-- 14 -->
<g id="node6" class="node">
<title>14</title>
<ellipse fill="none" stroke="black" cx="67.15" cy="-18" rx="33.6" ry="18"/>
<text text-anchor="middle" x="67.15" y="-14.3" font-family="Times,serif" font-size="14.00">fin_14</text>
</g>
<!-- 9&#45;&gt;14 -->
<g id="edge2" class="edge">
<title>9&#45;&gt;14</title>
<path fill="none" stroke="black" d="M104.28,-87.61C97.7,-75.46 88.61,-58.66 81.07,-44.73"/>
<polygon fill="black" stroke="black" points="83.98,-42.76 76.15,-35.63 77.83,-46.09 83.98,-42.76"/>
<text text-anchor="middle" x="96.65" y="-57.8" font-family="Times,serif" font-size="14.00">1</text>
</g>
<!-- 19 -->
<g id="node8" class="node">
<title>19</title>
<ellipse fill="none" stroke="red" cx="159.15" cy="-18" rx="27" ry="18"/>
<text text-anchor="middle" x="159.15" y="-14.3" font-family="Times,serif" font-size="14.00">19</text>
</g>
<!-- 9&#45;&gt;19 -->
<g id="edge3" class="edge">
<title>9&#45;&gt;19</title>
<path fill="none" stroke="red" d="M122.02,-87.61C128.68,-75.3 137.92,-58.23 145.52,-44.19"/>
<polygon fill="red" stroke="red" points="148.78,-45.51 150.46,-35.05 142.62,-42.18 148.78,-45.51"/>
<text text-anchor="middle" x="142.65" y="-57.8" font-family="Times,serif" font-size="14.00">1</text>
</g>
<!-- 11&#45;&gt;14 -->
<g id="edge4" class="edge">
<title>11&#45;&gt;14</title>
<path fill="none" stroke="black" d="M39.86,-87.21C44.66,-75.22 51.21,-58.85 56.68,-45.16"/>
<polygon fill="black" stroke="black" points="59.98,-46.34 60.44,-35.76 53.48,-43.74 59.98,-46.34"/>
<text text-anchor="middle" x="56.65" y="-57.8" font-family="Times,serif" font-size="14.00">1</text>
</g>
<!-- 13 -->
<g id="node5" class="node">
<title>13</title>
<ellipse fill="none" stroke="black" cx="144.15" cy="-366" rx="33.29" ry="18"/>
<text text-anchor="middle" x="144.15" y="-362.3" font-family="Times,serif" font-size="14.00">ini_13</text>
</g>
<!-- 13&#45;&gt;3 -->
<g id="edge5" class="edge">
<title>13&#45;&gt;3</title>
<path fill="none" stroke="black" d="M144.15,-347.8C144.15,-336.16 144.15,-320.55 144.15,-307.24"/>
<polygon fill="black" stroke="black" points="147.65,-307.18 144.15,-297.18 140.65,-307.18 147.65,-307.18"/>
<text text-anchor="middle" x="147.65" y="-318.8" font-family="Times,serif" font-size="14.00">1</text>
</g>
<!-- 18&#45;&gt;9 -->
<g id="edge6" class="edge">
<title>18&#45;&gt;9</title>
<path fill="none" stroke="red" d="M113.15,-173.8C113.15,-162.16 113.15,-146.55 113.15,-133.24"/>
<polygon fill="red" stroke="red" points="116.65,-133.18 113.15,-123.18 109.65,-133.18 116.65,-133.18"/>
<text text-anchor="middle" x="116.65" y="-144.8" font-family="Times,serif" font-size="14.00">1</text>
</g>
<!-- 19&#45;&gt;3 -->
<g id="edge7" class="edge">
<title>19&#45;&gt;3</title>
<path fill="none" stroke="red" d="M159.59,-36.17C160.27,-69.67 160.96,-146.09 155.15,-210 153.92,-223.54 151.61,-238.47 149.42,-250.88"/>
<polygon fill="red" stroke="red" points="145.92,-250.57 147.57,-261.04 152.81,-251.83 145.92,-250.57"/>
<text text-anchor="middle" x="162.65" y="-144.8" font-family="Times,serif" font-size="14.00">1</text>
</g>
</g>
</svg>
